REM DIRINDEX 1\2,1\3,1\4
REM DIRNAME cjc038,folder01,folder02,folder03
TITLE ""
FILE "DISC2Track31.mp3" MP3
  TRACK 01 AUDIO
    TITLE "0:"
    INDEX 01 00:00:00
  TRACK 02 AUDIO
    TITLE "4:cjc038_1818"
    INDEX 01 00:00:01
  TRACK 03 AUDIO
    TITLE "0:"
    INDEX 01 00:02:67
  TRACK 04 AUDIO
    TITLE "2:cjc038_1819"
    INDEX 01 00:04:36
  TRACK 05 AUDIO
    TITLE "0:"
    INDEX 01 00:07:25
  TRACK 06 AUDIO
    TITLE "2:cjc038_1820"
    INDEX 01 00:07:49
  TRACK 07 AUDIO
    TITLE "0:"
    INDEX 01 00:09:38
  TRACK 08 AUDIO
    TITLE "3:cjc038_1821"
    INDEX 01 00:09:49
  TRACK 09 AUDIO
    TITLE "0:"
    INDEX 01 00:12:34
  TRACK 10 AUDIO
    TITLE "3:cjc038_1822"
    INDEX 01 00:12:67
  TRACK 11 AUDIO
    TITLE "0:"
    INDEX 01 00:14:45
  TRACK 12 AUDIO
    TITLE "2:cjc038_1823"
    INDEX 01 00:15:21
  TRACK 13 AUDIO
    TITLE "0:"
    INDEX 01 00:17:51
  TRACK 14 AUDIO
    TITLE "3:cjc038_1824"
    INDEX 01 00:17:57
  TRACK 15 AUDIO
    TITLE "0:"
    INDEX 01 00:19:69
  TRACK 16 AUDIO
    TITLE "2:cjc038_1825"
    INDEX 01 00:20:57
  TRACK 17 AUDIO
    TITLE "0:"
    INDEX 01 00:22:36
  TRACK 18 AUDIO
    TITLE "3:cjc038_1826"
    INDEX 01 00:22:42
  TRACK 19 AUDIO
    TITLE "0:"
    INDEX 01 00:24:10
  TRACK 20 AUDIO
    TITLE "2:cjc038_1827"
    INDEX 01 00:25:64
  TRACK 21 AUDIO
    TITLE "0:"
    INDEX 01 00:27:53
  TRACK 22 AUDIO
    TITLE "2:cjc038_1828"
    INDEX 01 00:28:00
  TRACK 23 AUDIO
    TITLE "0:"
    INDEX 01 00:29:62
  TRACK 24 AUDIO
    TITLE "3:cjc038_1829"
    INDEX 01 00:29:68
  TRACK 25 AUDIO
    TITLE "0:"
    INDEX 01 00:31:53
  TRACK 26 AUDIO
    TITLE "3:cjc038_1830"
    INDEX 01 00:32:09
  TRACK 27 AUDIO
    TITLE "0:"
    INDEX 01 00:33:60
  TRACK 28 AUDIO
    TITLE "2:cjc038_1831"
    INDEX 01 00:34:40
  TRACK 29 AUDIO
    TITLE "0:"
    INDEX 01 00:37:50
  TRACK 30 AUDIO
    TITLE "3:cjc038_1832"
    INDEX 01 00:37:57
  TRACK 31 AUDIO
    TITLE "0:"
    INDEX 01 00:40:64
  TRACK 32 AUDIO
    TITLE "2:cjc038_1833"
    INDEX 01 00:41:36
  TRACK 33 AUDIO
    TITLE "0:"
    INDEX 01 00:43:33
  TRACK 34 AUDIO
    TITLE "3:cjc038_1834"
    INDEX 01 00:43:39
  TRACK 35 AUDIO
    TITLE "0:"
    INDEX 01 00:45:30
  TRACK 36 AUDIO
    TITLE "2:cjc038_1835"
    INDEX 01 00:47:11
  TRACK 37 AUDIO
    TITLE "0:"
    INDEX 01 00:49:47
  TRACK 38 AUDIO
    TITLE "2:cjc038_1836"
    INDEX 01 00:49:69
  TRACK 39 AUDIO
    TITLE "0:"
    INDEX 01 00:52:22
  TRACK 40 AUDIO
    TITLE "3:cjc038_1837"
    INDEX 01 00:52:32
  TRACK 41 AUDIO
    TITLE "0:"
    INDEX 01 00:54:66
  TRACK 42 AUDIO
    TITLE "3:cjc038_1838"
    INDEX 01 00:55:16
  TRACK 43 AUDIO
    TITLE "0:"
    INDEX 01 00:57:39
  TRACK 44 AUDIO
    TITLE "2:cjc038_1839"
    INDEX 01 00:58:18
  TRACK 45 AUDIO
    TITLE "0:"
    INDEX 01 01:01:29
  TRACK 46 AUDIO
    TITLE "3:cjc038_1840"
    INDEX 01 01:01:38
  TRACK 47 AUDIO
    TITLE "0:"
    INDEX 01 01:04:41
  TRACK 48 AUDIO
    TITLE "2:cjc038_1841"
    INDEX 01 01:05:22
  TRACK 49 AUDIO
    TITLE "0:"
    INDEX 01 01:08:29
  TRACK 50 AUDIO
    TITLE "3:cjc038_1842"
    INDEX 01 01:08:38
  TRACK 51 AUDIO
    TITLE "0:"
    INDEX 01 01:11:41
  TRACK 52 AUDIO
    TITLE "2:cjc038_1843"
    INDEX 01 01:12:15
  TRACK 53 AUDIO
    TITLE "0:"
    INDEX 01 01:13:61
  TRACK 54 AUDIO
    TITLE "3:cjc038_1844"
    INDEX 01 01:13:67
  TRACK 55 AUDIO
    TITLE "0:"
    INDEX 01 01:15:21
  TRACK 56 AUDIO
    TITLE "2:cjc038_1845"
    INDEX 01 01:16:09
  TRACK 57 AUDIO
    TITLE "0:"
    INDEX 01 01:19:52
  TRACK 58 AUDIO
    TITLE "3:cjc038_1846"
    INDEX 01 01:19:68
  TRACK 59 AUDIO
    TITLE "0:"
    INDEX 01 01:23:20
  TRACK 60 AUDIO
    TITLE "2:cjc038_1847"
    INDEX 01 01:25:02
  TRACK 61 AUDIO
    TITLE "0:"
    INDEX 01 01:28:57
  TRACK 62 AUDIO
    TITLE "2:cjc038_1848"
    INDEX 01 01:29:01
  TRACK 63 AUDIO
    TITLE "0:"
    INDEX 01 01:31:18
  TRACK 64 AUDIO
    TITLE "3:cjc038_1849"
    INDEX 01 01:31:28
  TRACK 65 AUDIO
    TITLE "0:"
    INDEX 01 01:35:04
  TRACK 66 AUDIO
    TITLE "3:cjc038_1850"
    INDEX 01 01:35:27
  TRACK 67 AUDIO
    TITLE "0:"
    INDEX 01 01:37:38
